name C:\Users\Nicos\Documents\OpenSimProjects\SprintingProject\Study1\PredictiveResults\IC_pred_Sprinting_optimum_28-October-2023__09-53-48___HTD_Minus_6_p02_maxVel_01.mot
datacolumns 38
datarows 10
range 0.10574023 0.11500407
endheader
                time	/jointset/ground_pelvis/pelvis_tilt/value	/jointset/ground_pelvis/pelvis_list/value	/jointset/ground_pelvis/pelvis_rotation/value	/jointset/ground_pelvis/pelvis_tx/value	/jointset/ground_pelvis/pelvis_ty/value	/jointset/ground_pelvis/pelvis_tz/value	/jointset/hip_r/hip_flexion_r/value	/jointset/hip_r/hip_adduction_r/value	/jointset/hip_r/hip_rotation_r/value	/jointset/knee_r/knee_angle_r/value	/jointset/ankle_r/ankle_angle_r/value	/jointset/subtalar_r/subtalar_angle_r/value	/jointset/mtp_r/mtp_angle_r/value	/jointset/hip_l/hip_flexion_l/value	/jointset/hip_l/hip_adduction_l/value	/jointset/hip_l/hip_rotation_l/value	/jointset/knee_l/knee_angle_l/value	/jointset/ankle_l/ankle_angle_l/value	/jointset/subtalar_l/subtalar_angle_l/value	/jointset/mtp_l/mtp_angle_l/value	/jointset/back/lumbar_extension/value	/jointset/back/lumbar_bending/value	/jointset/back/lumbar_rotation/value	/jointset/acromial_r/arm_flex_r/value	/jointset/acromial_r/arm_add_r/value	/jointset/acromial_r/arm_rot_r/value	/jointset/elbow_r/elbow_flex_r/value	/jointset/radioulnar_r/pro_sup_r/value	/jointset/radius_hand_r/wrist_flex_r/value	/jointset/radius_hand_r/wrist_dev_r/value	/jointset/acromial_l/arm_flex_l/value	/jointset/acromial_l/arm_add_l/value	/jointset/acromial_l/arm_rot_l/value	/jointset/elbow_l/elbow_flex_l/value	/jointset/radioulnar_l/pro_sup_l/value	/jointset/radius_hand_l/wrist_flex_l/value	/jointset/radius_hand_l/wrist_dev_l/value	
          0.10574023	         -6.18944672	          3.79877365	        -18.06422289	          0.56055887	          0.97010331	          0.30760057	          6.74505203	         -6.97368406	          9.85061930	        -31.78078224	         11.00396227	         -2.02490968	          9.69322764	         66.47882272	         -6.72163571	         -0.11858210	       -126.59862197	         16.15935086	        -19.16398245	          2.43982389	        -16.35844112	         -1.92931663	         10.68175741	         56.34796581	         -2.77015017	         -0.86440167	        140.39683499	         62.64274313	          9.23016132	          7.75459708	        -54.36589942	          0.53157472	         -0.25535689	        100.61931893	         57.20314430	         12.98692867	          6.69238545	
          0.10713686	         -6.17814712	          3.95397924	        -17.91380428	          0.57610272	          0.96995938	          0.30740293	          6.46014258	         -7.33185615	          9.69992888	        -32.71668777	         10.00904812	         -2.40266106	          9.59778732	         67.32714909	         -6.53802499	         -0.04249815	       -126.13495830	         16.51155732	        -19.57678515	          2.05249473	        -16.28250680	         -2.11003120	         10.60884229	         57.50164270	         -2.32027585	         -0.61475974	        140.17181026	         63.44287351	          9.37671383	          7.83570330	        -55.76974104	          0.64368795	         -0.33017709	        101.35314313	         57.28106314	         13.07206501	          6.68277792	
          0.10713686	         -6.17814712	          3.95397924	        -17.91380428	          0.57610272	          0.96995938	          0.30740293	          6.46014258	         -7.33185615	          9.69992888	        -32.71668777	         10.00904812	         -2.40266106	          9.59778732	         67.32714909	         -6.53802499	         -0.04249815	       -126.13495830	         16.51155732	        -19.57678515	          2.05249473	        -16.28250680	         -2.11003120	         10.60884229	         57.50164270	         -2.32027585	         -0.61475974	        140.17181026	         63.44287351	          9.37671383	          7.83570330	        -55.76974104	          0.64368795	         -0.33017709	        101.35314313	         57.28106314	         13.07206501	          6.68277792	
          0.10774677	         -6.16934086	          4.01350993	        -17.84810831	          0.58288310	          0.96991516	          0.30732113	          6.33599481	         -7.47799491	          9.63591063	        -33.13111486	          9.54683656	         -2.58018483	          9.51272762	         67.68602197	         -6.46448472	         -0.00742966	       -125.92002863	         16.65670983	        -19.75462758	          1.88249810	        -16.25806295	         -2.18304829	         10.58009945	         57.99053795	         -2.13028314	         -0.52866859	        140.05091562	         63.79272959	          9.44118587	          7.86906293	        -56.37063344	          0.68701840	         -0.36218531	        101.65469135	         57.33157675	         13.10670588	          6.67874458	
          0.10967383	         -6.13149142	          4.16977831	        -17.64812674	          0.60426837	          0.96983912	          0.30708855	          5.95402160	         -7.89634437	          9.45292965	        -34.46411500	          7.97626088	         -3.18332622	          9.07066757	         68.77864275	         -6.26622695	          0.10902930	       -125.19247264	         17.08079844	        -20.30372811	          1.34568731	        -16.20916412	         -2.39055520	         10.50831818	         59.47718491	         -1.56341352	         -0.31417202	        139.57488295	         64.89364339	          9.64403194	          7.96086347	        -58.21801172	          0.80219377	         -0.45426070	        102.52460068	         57.55405549	         13.20520591	          6.66631141	
          0.11107046	         -6.10050788	          4.25784067	        -17.51602873	          0.61972610	          0.96983234	          0.30695032	          5.69746298	         -8.16100995	          9.34694933	        -35.45384416	          6.74437321	         -3.65077293	          8.58573857	         69.53725292	         -6.15872282	          0.19448913	       -124.61946234	         17.35754184	        -20.68600685	          0.95875060	        -16.19202645	         -2.52336710	         10.47844645	         60.49881956	         -1.18706314	         -0.20078674	        139.13944991	         65.68961651	          9.79058947	          8.01730917	        -59.50649203	          0.86562851	         -0.50752267	        103.07004428	         57.77032218	         13.26679301	          6.65716629	
          0.11107046	         -6.10050788	          4.25784067	        -17.51602873	          0.61972610	          0.96983234	          0.30695032	          5.69746298	         -8.16100995	          9.34694933	        -35.45384416	          6.74437321	         -3.65077293	          8.58573857	         69.53725292	         -6.15872282	          0.19448913	       -124.61946234	         17.35754184	        -20.68600685	          0.95875060	        -16.19202645	         -2.52336710	         10.47844645	         60.49881956	         -1.18706314	         -0.20078674	        139.13944991	         65.68961651	          9.79058947	          8.01730917	        -59.50649203	          0.86562851	         -0.50752267	        103.07004428	         57.77032218	         13.26679301	          6.65716629	
          0.11168037	         -6.08745033	          4.29096832	        -17.46302175	          0.62646449	          0.96983919	          0.30689924	          5.59324563	         -8.26722505	          9.30961266	        -35.89248650	          6.18437233	         -3.86029204	          8.33059193	         69.86114725	         -6.12210744	          0.23097747	       -124.35722809	         17.47089841	        -20.84792938	          0.79081000	        -16.18728562	         -2.57790939	         10.47211523	         60.93007817	         -1.03238309	         -0.15964563	        138.92518010	         66.03746556	          9.85449288	          8.03986602	        -60.05540752	          0.88822379	         -0.52599602	        103.28419784	         57.87815104	         13.29129771	          6.65306196	
          0.11360744	         -6.04992623	          4.38111636	        -17.31762881	          0.64770515	          0.96989350	          0.30677804	          5.30103891	         -8.57215464	          9.23238983	        -37.30591433	          4.34603906	         -4.53193463	          7.35111786	         70.85597889	         -6.04740911	          0.33666125	       -123.48006824	         17.80371518	        -21.33600725	          0.26593764	        -16.17848122	         -2.74377938	         10.47978593	         62.23198413	         -0.58206757	         -0.06373689	        138.15085129	         67.13588217	         10.05492837	          8.10227380	        -61.73281431	          0.93980696	         -0.56067670	        103.85923864	         58.26751035	         13.35898166	          6.63887545	
          0.11500407	         -6.02779220	          4.43793545	        -17.23318393	          0.66305246	          0.96995943	          0.30672655	          5.12689693	         -8.77036828	          9.21444916	        -38.35373384	          2.94570004	         -5.01649501	          6.47670871	         71.55074530	         -6.02929629	          0.40015325	       -122.79753299	         18.02354565	        -21.66545445	         -0.10671499	        -16.17429755	         -2.86268987	         10.50934381	         63.11761207	         -0.29216522	         -0.02337350	        137.49626988	         67.92995807	         10.19828906	          8.14003537	        -62.89243037	          0.95944771	         -0.55924643	        104.17400938	         58.59211607	         13.39980533	          6.62734064	
